<svg width="28" height="28" viewBox="0 0 28 28" fill="none" xmlns="http://www.w3.org/2000/svg">
    <g clip-path="url(#clip0_82_87)">
    <path fill-rule="evenodd" clip-rule="evenodd" d="M12.2314 0.875C14.5859 0.875 16.0508 2.04175 16.6261 4.37525H20.1404C21.889 4.37525 23.6342 6.11715 23.6342 7.89277V11.3734C25.9614 11.9862 27.125 13.456 27.125 15.7829C27.125 18.1098 25.9614 19.569 23.6342 20.1603V23.6286C23.6342 25.4019 21.8713 27.125 20.1062 27.125C18.9295 27.125 13.6871 27.125 4.37917 27.125C2.62572 27.125 0.875 25.3878 0.875 23.6286V7.89277C0.875 6.12755 2.63285 4.37525 4.37917 4.37525H7.98335C8.46088 2.04175 9.8769 0.875 12.2314 0.875Z" fill="#FF7A00"/>
    <path d="M8.29215 22.7458C8.3399 22.7481 8.38758 22.7397 8.43229 22.7231C8.47701 22.7064 8.51789 22.6799 8.55203 22.6465C8.58536 22.6125 8.61183 22.5716 8.62927 22.5269C8.64671 22.4822 8.65506 22.4344 8.65277 22.3868V12.2696C8.64671 12.2264 8.65049 12.1817 8.66416 12.14C8.67776 12.0984 8.70126 12.0605 8.73231 12.0295C8.76335 11.9984 8.80127 11.9749 8.84214 11.9613C8.88309 11.9477 8.9278 11.9431 8.97097 11.9491H15.5311C15.5743 11.9446 15.6174 11.9499 15.6576 11.9643C15.6978 11.9787 15.7349 12.0022 15.7644 12.0332C15.7947 12.0643 15.8167 12.1014 15.8303 12.1423C15.844 12.1832 15.8477 12.2264 15.8417 12.2696V15.4278C15.8477 15.4703 15.844 15.5142 15.8311 15.5551C15.8182 15.596 15.7955 15.6339 15.7652 15.6649C15.7349 15.696 15.6985 15.7195 15.6576 15.7339C15.6167 15.7483 15.5735 15.7536 15.5303 15.7483H12.5749C12.531 15.7415 12.4863 15.7445 12.4438 15.7581C12.4014 15.7718 12.3627 15.7952 12.331 15.8263C12.2991 15.8574 12.2756 15.896 12.2613 15.9376C12.2469 15.9793 12.2431 16.0248 12.2499 16.0688V17.4687C12.2438 17.7876 12.2741 18.1058 12.3401 18.4172C12.4082 18.699 12.5271 18.9671 12.69 19.2073L14.7288 22.4064C14.7992 22.5208 14.9 22.6125 15.0204 22.6731C15.1409 22.7337 15.275 22.7587 15.4083 22.7474H18.0683C18.2024 22.7474 18.2888 22.7117 18.3296 22.6367C18.3478 22.5928 18.3539 22.5443 18.3471 22.4966C18.3403 22.4488 18.3198 22.4049 18.2895 22.3678L16.2675 19.102C16.1743 18.9679 16.2084 18.8626 16.3682 18.7815L17.7865 18.1422C18.2433 17.9581 18.6312 17.6361 18.8971 17.2217C19.1433 16.7854 19.2646 16.29 19.2486 15.7892V11.1499C19.2486 10.3629 19.0456 9.76664 18.6387 9.35983C18.2319 8.95302 17.6357 8.75 16.8485 8.75H7.65045C6.87998 8.75 6.28753 8.95302 5.87236 9.35983C5.4572 9.76664 5.25037 10.3629 5.25037 11.1499V22.3875C5.2481 22.4352 5.25643 22.4829 5.2731 22.5276C5.28976 22.5723 5.31628 22.6132 5.34962 22.6474C5.38371 22.6807 5.42462 22.7064 5.46932 22.7239C5.51401 22.7413 5.56175 22.7488 5.60947 22.7465H8.28912L8.29215 22.7458Z" fill="white"/>
    </g>
    <defs>
    <clipPath id="clip0_82_87">
    <rect width="28" height="28" fill="white"/>
    </clipPath>
    </defs>
    </svg>
    