<svg xmlns="http://www.w3.org/2000/svg" xmlns:xlink="http://www.w3.org/1999/xlink" viewBox="0 0 1514.04 381.46" width="1514.04" height="381.46"><defs><linearGradient id="b" x1="167.06" y1="-308.53" x2="232.94" y2="-132.83" gradientTransform="translate(0 500)" gradientUnits="userSpaceOnUse"><stop offset="0" stop-color="#1eceff"/><stop offset="1" stop-color="#0064ff"/></linearGradient><linearGradient id="c" x1="251.06" y1="-340.02" x2="316.94" y2="-164.32" gradientTransform="translate(0 500)" gradientUnits="userSpaceOnUse"><stop offset="0" stop-color="#1eceff"/><stop offset="1" stop-color="#0064ff"/></linearGradient></defs><path d="M487,83.37h-2.8l-48.45,111.63h23.1l8.56-20.55h33.2l8.1,20.55h26.68l-48.39-111.63ZM475.69,154.58l8.79-21.11,8.31,21.11h-17.1Z" style="fill:#000; stroke-width:0px;"/><path d="M619.26,164.47l-1.25,1.18c-2.61,2.3-5.58,4.15-8.79,5.48-4.4,1.84-9.13,2.73-13.9,2.6-4.31.06-8.59-.75-12.59-2.38-3.61-1.49-6.84-3.75-9.49-6.62-2.71-2.99-4.79-6.51-6.1-10.33-1.47-4.32-2.19-8.86-2.14-13.43-.05-4.36.74-8.69,2.32-12.76,1.49-3.78,3.66-7.25,6.4-10.25,2.62-2.86,5.78-5.17,9.31-6.78,3.45-1.58,7.2-2.4,11-2.39,4.52-.09,9,.87,13.09,2.8,3.26,1.55,6.37,3.4,9.29,5.51l1.26,1,9.14-22-.87-.55c-4.26-2.59-8.79-4.69-13.52-6.26-6.16-2.04-12.61-3.02-19.1-2.92-7.31-.09-14.56,1.3-21.32,4.09-6.29,2.64-11.96,6.58-16.61,11.57-4.71,5.11-8.35,11.13-10.68,17.68-2.53,7.19-3.79,14.77-3.71,22.4-.05,7.02,1.17,13.99,3.61,20.57,2.38,6.33,5.98,12.14,10.59,17.09,4.78,5.07,10.57,9.08,17,11.78,7.19,2.97,14.88,4.53,22.66,4.6h1.14c4.74.06,9.46-.51,14.05-1.7,4-1.05,7.89-2.52,11.59-4.37,2.31-1.12,4.51-2.46,6.57-4l.72-.61-9.67-21h0Z" style="fill:#000; stroke-width:0px;"/><path d="M721.58,164.47l-1.24,1.18c-2.61,2.3-5.59,4.15-8.8,5.48-4.4,1.84-9.13,2.73-13.9,2.6-4.31.06-8.59-.75-12.59-2.38-3.61-1.49-6.84-3.75-9.49-6.62-2.73-2.99-4.82-6.5-6.14-10.32-1.47-4.32-2.2-8.86-2.15-13.43-.04-4.36.75-8.69,2.34-12.75,1.49-3.78,3.66-7.25,6.4-10.25,2.62-2.86,5.78-5.17,9.31-6.78,3.45-1.58,7.2-2.4,11-2.39,4.52-.09,9,.87,13.09,2.8,3.26,1.55,6.37,3.4,9.29,5.51l1.26,1,9.14-22-.87-.55c-4.26-2.59-8.79-4.69-13.52-6.26-6.16-2.04-12.61-3.02-19.1-2.92-7.31-.09-14.56,1.3-21.32,4.09-6.29,2.64-11.96,6.58-16.61,11.57-4.71,5.12-8.34,11.13-10.68,17.68-2.51,7.19-3.75,14.76-3.65,22.38-.04,7.02,1.2,13.98,3.65,20.56,2.36,6.33,5.94,12.14,10.53,17.1,4.78,5.07,10.57,9.08,17,11.78,7.19,2.97,14.88,4.53,22.66,4.6h1.14c4.74.06,9.46-.51,14.05-1.7,4-1.05,7.88-2.52,11.58-4.37,2.31-1.12,4.51-2.46,6.57-4l.72-.61-9.67-21h0Z" style="fill:#000; stroke-width:0px;"/><polygon points="775.16 172.56 775.16 152.33 820.26 152.33 820.26 129.89 775.16 129.89 775.16 109.94 826.16 109.94 826.16 87.51 752.06 87.51 752.06 195 828.16 195 828.16 172.56 775.16 172.56" style="fill:#000; stroke-width:0px;"/><polygon points="873.14 172.56 873.14 87.51 850 87.51 850 195 922.48 195 922.52 172.56 873.14 172.56" style="fill:#000; stroke-width:0px;"/><polygon points="967.38 172.56 967.38 152.33 1012.48 152.33 1012.48 129.89 967.38 129.89 967.38 109.94 1018.38 109.94 1018.38 87.51 944.29 87.51 944.29 195 1020.38 195 1020.38 172.56 967.38 172.56" style="fill:#000; stroke-width:0px;"/><path d="M1101.39,156.01c2.89-1.75,5.47-3.96,7.63-6.56,2.97-3.56,5.18-7.69,6.51-12.13,1.31-4.28,1.98-8.72,2-13.19.07-5.17-.88-10.3-2.8-15.1-1.84-4.43-4.66-8.39-8.24-11.58-3.89-3.36-8.44-5.87-13.35-7.39-5.81-1.77-11.86-2.63-17.94-2.55h-33v107.49h23.15v-33.4h11.89l22.19,33.4h27l-25.04-38.99h0ZM1092.97,129.41c-.52,1.69-1.33,3.28-2.39,4.69-1.18,1.55-2.72,2.79-4.48,3.63-2.29,1.03-4.79,1.52-7.3,1.44h-13.47l.02-29.26h13.61c2.77-.13,5.52.45,8,1.69,1.78.97,3.28,2.39,4.34,4.12.92,1.55,1.57,3.24,1.92,5,.28,1.36.44,2.73.48,4.12-.03,1.55-.27,3.09-.73,4.57h0Z" style="fill:#000; stroke-width:0px;"/><path d="M1181.64,83.37h-2.75l-48.45,111.63h23.1l8.56-20.55h33.2l8.1,20.55h26.69l-48.45-111.63ZM1170.39,154.58l8.79-21.11,8.32,21.11h-17.11Z" style="fill:#000; stroke-width:0px;"/><polygon points="1303.94 87.51 1230.7 87.51 1230.7 109.94 1255.24 109.94 1255.24 195 1278.39 195 1278.39 109.94 1303.94 109.94 1303.94 87.51" style="fill:#000; stroke-width:0px;"/><polygon points="1347.41 172.56 1347.41 152.33 1392.51 152.33 1392.51 129.89 1347.41 129.89 1347.41 109.94 1398.41 109.94 1398.41 87.51 1324.31 87.51 1324.31 195 1400.41 195 1400.41 172.56 1347.41 172.56" style="fill:#000; stroke-width:0px;"/><path d="M1510.83,123.2c-2.14-6.62-5.6-12.74-10.16-18-5.05-5.65-11.33-10.06-18.36-12.89-7.53-3.19-16.77-4.8-27.45-4.8h-32.62v107.49h37.76c7.05.04,14.06-1.16,20.69-3.55,6.37-2.3,12.22-5.83,17.24-10.38,5.01-4.6,9.02-10.18,11.78-16.39,2.96-6.79,4.43-14.14,4.32-21.55-.02-6.77-1.1-13.49-3.2-19.93ZM1490.17,141.69c.08,4.6-.74,9.17-2.41,13.45-1.47,3.69-3.8,6.98-6.8,9.59-3.11,2.64-6.73,4.62-10.63,5.83-4.5,1.39-9.19,2.06-13.9,2h-11l-.04-62.75h15.61c2.84.09,5.66.53,8.39,1.32,3.48.97,6.75,2.57,9.65,4.72,3.35,2.55,6.06,5.85,7.91,9.64,2.13,4.13,3.22,9.58,3.22,16.2h0Z" style="fill:#000; stroke-width:0px;"/><path d="M599.16,294.58h11l-31.3-74.6h-.6l-31.21,74.6h9.56l7.66-18.85h27.49l7.4,18.85ZM567.64,267.44l10.61-26.12,10.26,26.12h-20.87Z" style="fill:#000; stroke-width:0px;"/><path d="M685.74,222.95v46.27c.05,3.04-.72,6.03-2.23,8.67-1.47,2.53-3.61,4.61-6.19,6-2.76,1.48-5.86,2.23-9,2.18-3.03.04-6.02-.71-8.67-2.18-2.57-1.42-4.72-3.49-6.24-6-1.57-2.61-2.38-5.62-2.33-8.67l-.02-46.27h-9.61v46.57c-.11,4.8,1.13,9.54,3.57,13.67,2.33,3.85,5.7,6.96,9.71,9,8.59,4.23,18.65,4.23,27.24,0,4.01-2.04,7.38-5.15,9.71-9,2.44-4.13,3.68-8.87,3.57-13.67v-46.57h-9.51Z" style="fill:#000; stroke-width:0px;"/><polygon points="729.35 222.95 729.35 232.17 748.17 232.17 748.17 294.58 757.78 294.58 757.78 232.17 777 232.17 777 222.95 729.35 222.95" style="fill:#000; stroke-width:0px;"/><path d="M874.1,244.73c-3.83-8.83-10.88-15.88-19.72-19.7-9.04-3.83-19.25-3.83-28.29,0-8.79,3.83-15.77,10.89-19.51,19.72-1.89,4.44-2.85,9.22-2.83,14.05-.1,9.75,3.76,19.12,10.7,25.96,3.35,3.31,7.3,5.95,11.64,7.77,9.09,3.74,19.3,3.74,28.39,0,8.81-3.71,15.85-10.68,19.62-19.47,3.83-9.06,3.83-19.27,0-28.33h0ZM864.95,269.52c-1.34,3.22-3.27,6.16-5.7,8.67-2.41,2.47-5.27,4.45-8.42,5.84-6.68,2.84-14.22,2.84-20.9,0-3.19-1.4-6.08-3.4-8.52-5.89-2.47-2.49-4.42-5.43-5.75-8.67-1.36-3.38-2.04-7-2-10.65-.03-3.61.64-7.19,1.95-10.55,2.57-6.59,7.65-11.88,14.12-14.72,10.11-4.37,21.87-2.02,29.52,5.9,2.42,2.55,4.35,5.53,5.7,8.77,2.77,6.83,2.77,14.47,0,21.3h0Z" style="fill:#000; stroke-width:0px;"/><polygon points="984.07 220.73 948.25 270.81 913.03 220.73 912.93 220.73 912.93 294.58 922.19 294.58 922.19 249.53 948.05 285.57 948.25 285.57 974.55 248.32 974.55 294.63 984.16 294.63 984.16 220.73 984.07 220.73" style="fill:#000; stroke-width:0px;"/><path d="M1069.56,294.58h11l-31.31-74.6h-.59l-31.21,74.6h9.51l7.66-18.82h27.55l7.39,18.82ZM1038.01,267.44l10.64-26.12,10.26,26.12h-20.9Z" style="fill:#000; stroke-width:0px;"/><polygon points="1103.45 222.95 1103.45 232.17 1122.27 232.17 1122.27 294.58 1131.88 294.58 1131.88 232.17 1151.1 232.17 1151.1 222.95 1103.45 222.95" style="fill:#000; stroke-width:0px;"/><rect x="1186.17" y="222.95" width="9.61" height="71.63" style="fill:#000; stroke-width:0px;"/><path d="M1302.09,244.73c-3.83-8.83-10.88-15.88-19.72-19.7-9.04-3.83-19.24-3.83-28.28,0-8.79,3.84-15.77,10.89-19.52,19.72-1.89,4.45-2.84,9.24-2.82,14.07v-.02.79c.22,19.97,16.58,35.98,36.55,35.77,4.87.03,9.69-.93,14.17-2.83,8.81-3.71,15.85-10.68,19.62-19.47,3.83-9.06,3.83-19.27,0-28.33h0ZM1292.94,269.52c-1.33,3.22-3.26,6.17-5.69,8.67-2.41,2.47-5.27,4.45-8.42,5.84-6.68,2.84-14.23,2.84-20.91,0-3.19-1.41-6.08-3.41-8.52-5.89-2.46-2.49-4.42-5.43-5.75-8.67-1.36-3.38-2.04-7-2-10.65-.03-3.61.62-7.19,1.93-10.55,2.57-6.59,7.65-11.88,14.12-14.72,3.32-1.46,6.92-2.2,10.55-2.17,7.18-.06,14.06,2.86,19,8.07,2.42,2.55,4.35,5.52,5.69,8.77,2.77,6.83,2.77,14.47,0,21.3Z" style="fill:#000; stroke-width:0px;"/><polygon points="1393.73 222.91 1393.92 274.86 1341.42 220.73 1340.92 220.73 1340.92 294.62 1350.53 294.62 1350.35 243.56 1402.94 296.86 1403.34 296.82 1403.34 222.91 1393.73 222.91" style="fill:#000; stroke-width:0px;"/><path d="M246.47,247.29c13.4-19.78,29.15-37.85,46.91-53.82,6.59-6,13.53-11.6,20.72-16.94,5.13,5.27,13.57,5.38,18.84.24,5.27-5.13,5.38-13.57.24-18.84-5.13-5.27-13.57-5.38-18.84-.24-2.58,2.51-4.03,5.96-4.02,9.56,0,.89.09,1.78.27,2.65-8.32,4.29-16.48,9-24.4,14.1-21.28,13.7-40.82,29.94-58.19,48.36-17.55,18.69-33.04,39.22-46.21,61.22-6.65,11-12.77,22.34-18.42,33.91-1.67,3.44-3.89,8.56-6.3,14.36h-14.9c1.57-4.25,3.23-8.48,5-12.67,5.97-14.29,12.84-28.19,20.57-41.62,15.61-27.11,34.84-51.98,57.15-73.91,11.37-10.94,23.51-21.06,36.31-30.28l9.8-6.64c.82-.55,1.63-1.14,2.47-1.66l2.55-1.54,5.1-3.09c6.72-4.31,13.89-7.78,20.92-11.61,17.6-8.64,35.92-15.74,54.75-21.21,3.12,6.66,11.05,9.52,17.7,6.4,6.65-3.12,9.52-11.05,6.4-17.7-3.12-6.65-11.05-9.52-17.7-6.4-4.68,2.2-7.67,6.91-7.66,12.08,0,.38,0,.75.05,1.12-19.78,3.23-39.25,8.17-58.18,14.77-7.71,3-15.61,5.76-23.13,9.37l-5.69,2.47-2.86,1.29c-.94.45-1.86.95-2.79,1.42l-11.16,5.76c-14.75,8.1-28.9,17.25-42.35,27.36-26.96,20.72-50.97,45.02-71.37,72.22-10.29,13.71-19.69,28.05-28.16,42.95-4.29,7.46-8.29,15.09-12.07,22.92-1.33,2.7-2.61,5.44-3.83,8.23h-22.3L223.35,75.43l42.5,72.79,2-.92c6.18-3,12.23-5.25,18.11-7.48,2.08-.79,4.16-1.59,6.22-2.4l.8-.3c3.43-1.2,6.86-2.34,10.34-3.43L224,0,0,381.46h192.41c2.51-11.45,6.29-27.49,9.64-38.71s7.21-22.27,11.57-33.15c8.69-21.89,19.7-42.78,32.85-62.31h0ZM323.66,162.78c2.47,0,4.47,2,4.47,4.47s-2,4.47-4.47,4.47-4.47-2-4.47-4.47h0c0-2.47,2-4.47,4.47-4.47h0ZM368.88,127.47c2.47,0,4.48,2,4.49,4.47,0,2.47-2,4.48-4.47,4.49-2.47,0-4.48-2-4.49-4.47h0c0-2.48,2-4.48,4.47-4.49Z" style="fill:url(#b); stroke-width:0px;"/><path d="M303.23,322.45c-2.63,6.75-4.86,13.32-6.74,19.52-3.84,12.52-6.82,25.28-8.94,38.2-.06.38-.11.75-.17,1.09h158.77l-17.22-29.53c-13.7-23.54-27.64-47.31-41.11-70.31s-27.44-46.83-41.16-70.37l-9.6-15.2h0c-23.28,11.04-43.75,27.23-59.86,47.34-43.81,55.09-53.83,125.79-55.28,138.1h39.67c3.08-20,16.66-88.82,62.48-131,3.33,5.7,6.67,11.39,10,17.06.18.29.35.6.52.89,6.52,11.13,13,22.19,19.37,33.06,7.83,13.37,15.81,27,23.82,40.68h-46.48l-28.07-19.53h0Z" style="fill:url(#c); stroke-width:0px;"/></svg>