<svg width="1041" height="135" viewBox="0 0 1041 135" fill="none" xmlns="http://www.w3.org/2000/svg">
<path d="M1005.02 108.19C997.085 108.19 990.5 107.079 985.264 104.858C980.028 102.557 976.061 99.5821 973.364 95.9328C970.667 92.2834 969.239 88.3961 969.08 84.2708C969.08 83.6361 969.318 83.0808 969.794 82.6048C970.349 82.0494 970.984 81.7718 971.698 81.7718H986.692C987.803 81.7718 988.636 81.9701 989.191 82.3668C989.826 82.7634 990.381 83.2791 990.857 83.9138C991.492 85.1038 992.364 86.2541 993.475 87.3648C994.665 88.4754 996.172 89.3878 997.997 90.1018C999.901 90.7364 1002.24 91.0538 1005.02 91.0538C1009.62 91.0538 1013.07 90.3398 1015.37 88.9118C1017.75 87.4838 1018.94 85.5401 1018.94 83.0808C1018.94 81.3354 1018.31 79.9074 1017.04 78.7968C1015.77 77.6068 1013.71 76.5754 1010.85 75.7028C1008.07 74.7508 1004.34 73.7988 999.663 72.8468C993.634 71.5774 988.477 69.9511 984.193 67.9678C979.988 65.9051 976.775 63.2474 974.554 59.9948C972.333 56.6628 971.222 52.5374 971.222 47.6188C971.222 42.7794 972.571 38.4558 975.268 34.6478C978.045 30.8398 981.892 27.8648 986.811 25.7228C991.73 23.5808 997.561 22.5098 1004.3 22.5098C1009.78 22.5098 1014.58 23.2238 1018.7 24.6518C1022.91 26.0798 1026.44 27.9838 1029.29 30.3638C1032.15 32.7438 1034.29 35.2824 1035.72 37.9798C1037.23 40.5978 1038.02 43.1761 1038.1 45.7148C1038.1 46.3494 1037.86 46.9444 1037.39 47.4998C1036.91 47.9758 1036.32 48.2138 1035.6 48.2138H1019.89C1019.02 48.2138 1018.27 48.0551 1017.63 47.7378C1017 47.4204 1016.44 46.9048 1015.97 46.1908C1015.49 44.4454 1014.22 42.9381 1012.16 41.6688C1010.17 40.3201 1007.56 39.6458 1004.3 39.6458C1000.81 39.6458 998.076 40.2804 996.093 41.5498C994.189 42.7398 993.237 44.6041 993.237 47.1428C993.237 48.7294 993.753 50.1178 994.784 51.3078C995.895 52.4978 997.68 53.5291 1000.14 54.4018C1002.68 55.2744 1006.13 56.1868 1010.49 57.1388C1017.71 58.4874 1023.54 60.1931 1027.99 62.2558C1032.43 64.2391 1035.68 66.8571 1037.74 70.1098C1039.81 73.2831 1040.84 77.2894 1040.84 82.1288C1040.84 87.5234 1039.29 92.2041 1036.2 96.1708C1033.18 100.058 1028.98 103.033 1023.58 105.096C1018.19 107.158 1012 108.19 1005.02 108.19Z" fill="#18354C"/>
<path d="M893.146 107C892.273 107 891.559 106.723 891.004 106.167C890.449 105.612 890.171 104.898 890.171 104.025V26.6752C890.171 25.8025 890.449 25.0885 891.004 24.5332C891.559 23.9779 892.273 23.7002 893.146 23.7002H929.441C936.264 23.7002 941.857 24.6522 946.22 26.5562C950.583 28.4602 953.796 31.1972 955.859 34.7672C958.001 38.2579 959.072 42.4229 959.072 47.2622C959.072 50.1182 958.517 52.6569 957.406 54.8782C956.375 57.0202 955.066 58.8052 953.479 60.2332C951.972 61.6612 950.544 62.6925 949.195 63.3272C952.21 64.7552 954.867 67.0955 957.168 70.3482C959.548 73.6009 960.738 77.4089 960.738 81.7722C960.738 87.0082 959.548 91.5302 957.168 95.3382C954.867 99.0669 951.456 101.963 946.934 104.025C942.491 106.009 937.017 107 930.512 107H893.146ZM911.472 91.5302H928.132C931.543 91.5302 934.122 90.5385 935.867 88.5552C937.612 86.5719 938.485 84.3109 938.485 81.7722C938.485 78.9955 937.573 76.6552 935.748 74.7512C934.003 72.8472 931.464 71.8952 928.132 71.8952H911.472V91.5302ZM911.472 56.7822H927.061C930.314 56.7822 932.733 55.9492 934.32 54.2832C935.986 52.6172 936.819 50.4752 936.819 47.8572C936.819 45.3185 935.986 43.2559 934.32 41.6692C932.733 40.0032 930.314 39.1702 927.061 39.1702H911.472V56.7822Z" fill="#18354C"/>
<path d="M800.229 107C799.594 107 798.999 106.762 798.443 106.286C797.967 105.731 797.729 105.136 797.729 104.501C797.729 104.105 797.769 103.748 797.849 103.43L825.814 27.0322C826.052 26.1595 826.528 25.4059 827.242 24.7712C828.035 24.0572 829.106 23.7002 830.455 23.7002H848.067C849.415 23.7002 850.447 24.0572 851.161 24.7712C851.954 25.4059 852.47 26.1595 852.708 27.0322L880.554 103.43C880.712 103.748 880.792 104.105 880.792 104.501C880.792 105.136 880.514 105.731 879.958 106.286C879.482 106.762 878.888 107 878.174 107H863.536C862.346 107 861.434 106.723 860.799 106.167C860.244 105.533 859.887 104.977 859.729 104.501L855.088 92.3632H823.315L818.792 104.501C818.634 104.977 818.277 105.533 817.721 106.167C817.166 106.723 816.214 107 814.866 107H800.229ZM828.193 75.2272H850.328L839.142 43.8112L828.193 75.2272Z" fill="#18354C"/>
<path d="M736.958 107C736.086 107 735.372 106.723 734.816 106.167C734.261 105.612 733.983 104.898 733.983 104.025V26.6752C733.983 25.8025 734.261 25.0885 734.816 24.5332C735.372 23.9779 736.086 23.7002 736.958 23.7002H752.666C753.46 23.7002 754.134 23.9779 754.689 24.5332C755.324 25.0885 755.641 25.8025 755.641 26.6752V89.0312H791.579C792.452 89.0312 793.166 89.3485 793.721 89.9832C794.356 90.5385 794.673 91.2525 794.673 92.1252V104.025C794.673 104.898 794.356 105.612 793.721 106.167C793.166 106.723 792.452 107 791.579 107H736.958Z" fill="#18354C"/>
<path d="M657.965 108.19C650.667 108.19 644.32 107 638.925 104.62C633.531 102.24 629.326 98.6698 626.311 93.9098C623.297 89.0704 621.631 83.0411 621.313 75.8218C621.234 72.4104 621.194 68.9991 621.194 65.5878C621.194 62.1764 621.234 58.7254 621.313 55.2348C621.631 48.0948 623.297 42.1051 626.311 37.2658C629.405 32.3471 633.65 28.6581 639.044 26.1988C644.439 23.7394 650.746 22.5098 657.965 22.5098C665.105 22.5098 671.373 23.7394 676.767 26.1988C682.241 28.6581 686.525 32.3471 689.619 37.2658C692.713 42.1051 694.379 48.0948 694.617 55.2348C694.776 58.7254 694.855 62.1764 694.855 65.5878C694.855 68.9991 694.776 72.4104 694.617 75.8218C694.3 83.0411 692.634 89.0704 689.619 93.9098C686.605 98.6698 682.4 102.24 677.005 104.62C671.611 107 665.264 108.19 657.965 108.19ZM657.965 91.0538C662.17 91.0538 665.581 89.7844 668.199 87.2458C670.897 84.7071 672.325 80.6611 672.483 75.1078C672.642 71.6171 672.721 68.3248 672.721 65.2308C672.721 62.1368 672.642 58.9238 672.483 55.5918C672.325 51.8631 671.611 48.8484 670.341 46.5478C669.151 44.1678 667.485 42.4224 665.343 41.3118C663.201 40.2011 660.742 39.6458 657.965 39.6458C655.268 39.6458 652.848 40.2011 650.706 41.3118C648.564 42.4224 646.859 44.1678 645.589 46.5478C644.32 48.8484 643.606 51.8631 643.447 55.5918C643.368 58.9238 643.328 62.1368 643.328 65.2308C643.328 68.3248 643.368 71.6171 643.447 75.1078C643.685 80.6611 645.113 84.7071 647.731 87.2458C650.349 89.7844 653.761 91.0538 657.965 91.0538Z" fill="#18354C"/>
<path d="M567.779 107C566.43 107 565.359 106.643 564.566 105.929C563.772 105.215 563.217 104.382 562.9 103.43L538.624 27.2702C538.465 26.8735 538.386 26.5165 538.386 26.1992C538.386 25.5645 538.624 25.0092 539.1 24.5332C539.655 23.9779 540.29 23.7002 541.004 23.7002H555.76C557.029 23.7002 558.021 24.0572 558.735 24.7712C559.449 25.4852 559.885 26.1595 560.044 26.7942L576.823 81.7722L593.721 26.7942C593.959 26.1595 594.395 25.4852 595.03 24.7712C595.744 24.0572 596.735 23.7002 598.005 23.7002H612.761C613.475 23.7002 614.07 23.9779 614.546 24.5332C615.101 25.0092 615.379 25.5645 615.379 26.1992C615.379 26.5165 615.299 26.8735 615.141 27.2702L590.865 103.43C590.547 104.382 589.992 105.215 589.199 105.929C588.485 106.643 587.414 107 585.986 107H567.779Z" fill="#18354C"/>
<path d="M508.371 107C507.499 107 506.785 106.723 506.229 106.167C505.674 105.612 505.396 104.898 505.396 104.025V26.6752C505.396 25.8025 505.674 25.0885 506.229 24.5332C506.785 23.9779 507.499 23.7002 508.371 23.7002H524.318C525.19 23.7002 525.904 23.9779 526.46 24.5332C527.015 25.0885 527.293 25.8025 527.293 26.6752V104.025C527.293 104.898 527.015 105.612 526.46 106.167C525.904 106.723 525.19 107 524.318 107H508.371Z" fill="#18354C"/>
<path d="M451.741 107C450.869 107 450.155 106.723 449.599 106.167C449.044 105.612 448.766 104.898 448.766 104.025V42.3832H427.584C426.712 42.3832 425.998 42.1055 425.442 41.5502C424.887 40.9155 424.609 40.2015 424.609 39.4082V26.6752C424.609 25.8025 424.887 25.0885 425.442 24.5332C425.998 23.9779 426.712 23.7002 427.584 23.7002H491.606C492.479 23.7002 493.193 23.9779 493.748 24.5332C494.304 25.0885 494.581 25.8025 494.581 26.6752V39.4082C494.581 40.2015 494.304 40.9155 493.748 41.5502C493.193 42.1055 492.479 42.3832 491.606 42.3832H470.424V104.025C470.424 104.898 470.147 105.612 469.591 106.167C469.036 106.723 468.322 107 467.449 107H451.741Z" fill="#18354C"/>
<path d="M352.997 107C352.125 107 351.411 106.723 350.855 106.167C350.3 105.612 350.022 104.898 350.022 104.025V26.6752C350.022 25.8025 350.3 25.0885 350.855 24.5332C351.411 23.9779 352.125 23.7002 352.997 23.7002H386.317C392.902 23.7002 398.614 24.7315 403.453 26.7942C408.372 28.7775 412.18 31.7922 414.877 35.8382C417.654 39.8842 419.042 45.0012 419.042 51.1892C419.042 57.2979 417.654 62.3355 414.877 66.3022C412.18 70.2689 408.372 73.2042 403.453 75.1082C398.614 77.0122 392.902 77.9642 386.317 77.9642H372.156V104.025C372.156 104.898 371.839 105.612 371.204 106.167C370.649 106.723 369.935 107 369.062 107H352.997ZM371.799 61.5422H385.722C389.134 61.5422 391.831 60.6695 393.814 58.9242C395.877 57.1789 396.908 54.5212 396.908 50.9512C396.908 47.9365 396.036 45.3979 394.29 43.3352C392.545 41.2725 389.689 40.2412 385.722 40.2412H371.799V61.5422Z" fill="#18354C"/>
<path d="M260.08 107C259.445 107 258.85 106.762 258.295 106.286C257.819 105.731 257.581 105.136 257.581 104.501C257.581 104.105 257.621 103.748 257.7 103.43L285.665 27.0322C285.903 26.1595 286.379 25.4059 287.093 24.7712C287.886 24.0572 288.957 23.7002 290.306 23.7002H307.918C309.267 23.7002 310.298 24.0572 311.012 24.7712C311.805 25.4059 312.321 26.1595 312.559 27.0322L340.405 103.43C340.564 103.748 340.643 104.105 340.643 104.501C340.643 105.136 340.365 105.731 339.81 106.286C339.334 106.762 338.739 107 338.025 107H323.388C322.198 107 321.286 106.723 320.651 106.167C320.096 105.533 319.739 104.977 319.58 104.501L314.939 92.3632H283.166L278.644 104.501C278.485 104.977 278.128 105.533 277.573 106.167C277.018 106.723 276.066 107 274.717 107H260.08ZM288.045 75.2272H310.179L298.993 43.8112L288.045 75.2272Z" fill="#18354C"/>
<path d="M216.483 108.19C208.946 108.19 202.48 106.96 197.086 104.501C191.77 102.041 187.605 98.4318 184.591 93.6718C181.655 88.9118 180.029 83.0014 179.712 75.9408C179.632 72.6881 179.593 69.1974 179.593 65.4688C179.593 61.7401 179.632 58.1701 179.712 54.7588C180.029 47.8568 181.695 42.0258 184.71 37.2658C187.724 32.4264 191.929 28.7771 197.324 26.3178C202.718 23.7791 209.105 22.5098 216.483 22.5098C221.719 22.5098 226.558 23.1841 231.001 24.5328C235.443 25.8021 239.331 27.7061 242.663 30.2448C245.995 32.7041 248.573 35.7188 250.398 39.2888C252.302 42.7794 253.293 46.7461 253.373 51.1888C253.452 51.9028 253.214 52.4978 252.659 52.9738C252.183 53.4498 251.588 53.6878 250.874 53.6878H234.809C233.777 53.6878 232.984 53.4894 232.429 53.0928C231.873 52.6168 231.397 51.7838 231.001 50.5938C229.89 46.3891 228.065 43.5331 225.527 42.0258C223.067 40.4391 220.013 39.6458 216.364 39.6458C212 39.6458 208.549 40.8754 206.011 43.3348C203.472 45.7148 202.084 49.7211 201.846 55.3538C201.608 61.8591 201.608 68.5231 201.846 75.3458C202.084 80.9784 203.472 85.0244 206.011 87.4838C208.549 89.8638 212 91.0538 216.364 91.0538C220.013 91.0538 223.107 90.2604 225.646 88.6738C228.184 87.0871 229.969 84.2311 231.001 80.1058C231.318 78.9158 231.754 78.1224 232.31 77.7258C232.944 77.2498 233.777 77.0118 234.809 77.0118H250.874C251.588 77.0118 252.183 77.2498 252.659 77.7258C253.214 78.2018 253.452 78.7968 253.373 79.5108C253.293 83.9534 252.302 87.9598 250.398 91.5298C248.573 95.0204 245.995 98.0351 242.663 100.574C239.331 103.033 235.443 104.937 231.001 106.286C226.558 107.555 221.719 108.19 216.483 108.19Z" fill="#18354C"/>
<path d="M0 0H134.054V134.054H0V0Z" fill="#2BD4BD"/>
<path d="M91.7852 81.8946C83.6822 87.168 79.695 88.7114 74.1644 88.7114C70.3058 88.7114 66.7045 87.6825 63.2318 85.6246C56.415 81.5087 51.7847 74.0488 51.7847 66.3317C51.7847 62.2159 52.8137 58.3573 54.8716 54.8846C58.8587 47.9392 66.4473 43.8234 74.1644 43.8234C79.0519 43.8234 83.425 45.2382 87.1549 47.9392C87.798 48.325 88.5697 48.8395 89.4701 49.7398L91.3994 51.1546L100.017 40.9937L98.602 39.5789C97.7017 38.6786 96.5441 37.9069 95.1293 37.0066C89.0842 32.3763 82.0102 30.0611 74.1644 30.0611C64.518 30.0611 55.6433 33.7911 48.5692 40.6079C41.7524 47.8106 37.8938 56.6853 37.8938 66.3317C37.8938 75.9781 41.7524 85.1101 48.5692 91.9269C55.386 98.7437 64.518 102.602 74.1644 102.602C81.1098 102.602 87.5408 100.673 93.5859 96.8144L91.0135 92.9558C85.7401 96.4286 80.2095 98.1006 74.1644 98.1006C65.8042 98.1006 57.8298 94.7565 51.7847 88.7114C45.7396 82.6663 42.5241 74.6919 42.5241 66.3317C42.5241 57.9715 45.7396 50.1257 51.7847 44.0806C57.8298 37.9069 65.8042 34.6914 74.1644 34.6914C80.4667 34.6914 86.5118 36.6207 92.5569 40.6079L93.5859 41.5082L90.7563 44.7237C90.3704 44.5951 90.1132 44.4665 89.8559 44.2092C85.097 40.9937 79.8237 39.3217 74.1644 39.3217C69.1483 39.3217 64.6466 40.4793 60.6594 42.7944C52.5564 47.5533 47.1544 56.9425 47.1544 66.3317C47.1544 70.8334 48.4406 75.335 50.8844 79.5795C55.9005 88.1969 65.0325 93.4703 74.1644 93.4703C80.2095 93.4703 85.097 91.6696 92.4283 87.0394L99.631 97.7147C90.2418 103.888 82.9105 106.461 74.1644 106.461C66.9617 106.461 60.2736 104.66 54.0998 101.059C41.6238 93.8562 33.9067 80.737 33.9067 66.3317C33.9067 59.129 35.7073 52.4408 39.3087 46.1385C46.5113 33.7911 59.7591 26.0739 74.1644 26.0739C84.3253 26.0739 93.9717 29.8039 101.303 36.6207L102.075 37.2638L103.104 38.2927L106.319 34.9486L104.519 33.148C96.2869 25.8167 85.4829 21.5723 74.1644 21.5723C66.0614 21.5723 58.6015 23.5016 51.7847 27.4887C38.1511 35.3345 29.2764 50.3829 29.2764 66.3317C29.2764 74.1775 31.3343 81.6374 35.4501 88.5828C43.5531 102.474 58.087 111.22 74.1644 111.22C84.3253 111.22 92.8142 108.004 104.261 100.159L106.062 99.0009L93.8431 80.6084L91.7852 81.8946Z" fill="#18354C"/>
</svg>
